<svg width="128" height="128" viewBox="0 0 128 128" fill="none" xmlns="http://www.w3.org/2000/svg">
<g clip-path="url(#clip0_2_2)">
<mask id="mask0_2_2" style="mask-type:luminance" maskUnits="userSpaceOnUse" x="0" y="0" width="129" height="128">
<path d="M0 64C0 28.6538 28.6546 0 64.0008 0C99.347 0 128.002 28.6538 128.002 64C128.002 99.3462 99.347 128 64.0008 128C28.6546 128 0 99.3462 0 64Z" fill="white"/>
</mask>
<g mask="url(#mask0_2_2)">
<path d="M0.999997 0C0.447712 0 0 0.447715 0 1V127C0 127.552 0.447715 128 1 128H127.002C127.554 128 128.002 127.552 128.002 127V1C128.002 0.447715 127.554 0 127.002 0H0.999997ZM81.6607 47.1086C86.0431 51.6698 88.4484 57.6485 88.4484 64.0059C88.4484 64.8226 88.4091 65.6322 88.3304 66.4348C87.8676 71.2264 85.984 75.7706 82.9211 79.4843C82.4103 80.104 81.8668 80.7017 81.2906 81.2775C81.2895 81.2786 81.2885 81.2797 81.2875 81.281C81.2866 81.2822 81.2856 81.2834 81.2845 81.2845C76.6674 85.9026 70.529 88.4449 63.9989 88.4449C57.4681 88.4449 51.3305 85.9017 46.7204 81.2788C42.1032 76.6739 39.5609 70.5398 39.5609 64.0053C39.5609 57.4707 42.1038 51.3369 46.726 46.7246C51.3317 42.1076 57.4659 39.5645 63.9989 39.5645C70.5201 39.5645 76.6549 42.1089 81.2746 46.7265L81.6607 47.1086ZM60.8952 32.6047C60.8952 33.119 60.5047 33.5477 59.9946 33.6134C54.6596 34.3006 49.6032 36.3963 45.346 39.6848C44.9389 39.9993 44.3594 39.9725 43.9956 39.6086L26.1414 21.7531C25.7366 21.3483 25.7533 20.6861 26.1853 20.3104C35.6304 12.0944 47.3386 7.24227 59.8431 6.36015C60.4146 6.31983 60.8952 6.77643 60.8952 7.34933V32.6047ZM39.6064 43.9994C39.9702 44.3632 39.9971 44.9425 39.6827 45.3497C36.3946 49.6077 34.2989 54.6649 33.6113 60.0008C33.5456 60.5109 33.117 60.9013 32.6027 60.9013H7.34982C6.77687 60.9013 6.32026 60.4206 6.36067 59.8491C7.24363 47.362 12.0964 35.6539 20.3117 26.1924C20.6873 25.7598 21.35 25.7428 21.7551 26.1479L39.6064 43.9994ZM32.6026 67.1108C33.1169 67.1108 33.5456 67.5013 33.6113 68.0114C34.2984 73.3467 36.3937 78.4034 39.6816 82.6608C39.9961 83.068 39.9691 83.6474 39.6053 84.0112L21.7492 101.863C21.3442 102.268 20.6817 102.251 20.3061 101.818C12.0934 92.3655 7.24184 80.6576 6.35935 68.163C6.31899 67.5915 6.77559 67.1108 7.34852 67.1108H32.6026ZM43.9953 88.4014C44.3591 88.0377 44.9385 88.0109 45.3456 88.3254C49.6029 91.6138 54.6595 93.7096 59.9947 94.3969C60.5048 94.4626 60.8952 94.8912 60.8952 95.4056V120.65C60.8952 121.223 60.4145 121.679 59.843 121.639C47.3511 120.756 35.6433 115.906 26.1859 107.696C25.7532 107.32 25.7363 106.657 26.1414 106.252L43.9953 88.4014ZM67.1041 95.1217C67.1041 94.7683 67.371 94.4657 67.7219 94.4233C68.4249 94.3386 69.123 94.2349 69.8146 94.1032C70.6241 93.9475 71.424 93.7569 72.2149 93.538C72.9335 93.339 73.6471 93.1232 74.3471 92.8728C77.3422 91.7999 80.1486 90.2642 82.6648 88.3232C83.0719 88.0091 83.6509 88.0363 84.0145 88.3999L101.862 106.249C102.267 106.654 102.25 107.317 101.817 107.692C92.36 115.905 80.6513 120.756 68.1563 121.638C67.5848 121.679 67.1041 121.222 67.1041 120.649V95.1217ZM88.4066 84.0106C88.0429 83.6468 88.016 83.0674 88.3304 82.6603C91.6182 78.403 93.7135 73.3465 94.4008 68.0114C94.4665 67.5013 94.8952 67.1108 95.4095 67.1108H120.651C121.223 67.1108 121.68 67.5915 121.64 68.163C120.758 80.6559 115.907 92.3616 107.696 101.814C107.321 102.247 106.658 102.263 106.253 101.858L88.4066 84.0106ZM95.4095 60.9013C94.8952 60.9013 94.4666 60.5109 94.4009 60.0008C93.7136 54.6648 91.6179 49.6075 88.3297 45.3496C88.0153 44.9425 88.0422 44.3632 88.4058 43.9994L106.248 26.1499C106.653 25.7446 107.316 25.7616 107.692 26.1943C115.904 35.6554 120.757 47.3616 121.64 59.8491C121.68 60.4206 121.223 60.9013 120.65 60.9013H95.4095ZM83.9862 39.6379C83.6229 40.0013 83.0441 40.0287 82.6372 39.7148C78.3629 36.4179 73.3499 34.3198 68.0033 33.6244C67.4939 33.5581 67.1041 33.1297 67.1041 32.616V7.34933C67.1041 6.77643 67.5848 6.31983 68.1563 6.36015C80.6616 7.24238 92.3721 12.0965 101.818 20.313C102.25 20.6887 102.267 21.3508 101.862 21.7556L83.9862 39.6379ZM21.7101 15.9719C21.3099 16.3263 20.7021 16.313 20.3241 15.935L12.307 7.91716C11.6771 7.28718 12.1232 6.21008 13.0141 6.21008H32.0264C33.0911 6.21008 33.4533 7.72332 32.527 8.24818C28.6645 10.4367 25.0387 13.0249 21.7101 15.9719ZM6.20975 13.0149C6.20978 12.124 7.28693 11.6779 7.91688 12.3078L15.937 20.3284C16.3147 20.7062 16.3282 21.3135 15.9744 21.7137C13.0264 25.0487 10.437 28.6802 8.24658 32.548C7.72194 33.4744 6.20902 33.1123 6.20906 32.0476L6.20975 13.0149ZM16.6069 107.005C16.6083 107.006 16.6083 107.009 16.6069 107.01L7.91682 115.697C7.2868 116.327 6.20983 115.881 6.20983 114.99V95.973C6.20983 94.9083 7.72295 94.5462 8.24766 95.4726C10.5926 99.6128 13.3957 103.482 16.6069 107.005ZM13.0176 121.793C12.1267 121.793 11.6806 120.716 12.3106 120.086L20.3256 112.072C20.7033 111.694 21.3107 111.681 21.7109 112.035C25.0427 114.98 28.6707 117.567 32.5346 119.755C33.461 120.28 33.0989 121.793 32.0342 121.793H13.0176ZM115.697 120.086C116.326 120.716 115.88 121.793 114.989 121.793H95.9676C94.903 121.793 94.5409 120.28 95.4672 119.755C99.3324 117.566 102.961 114.977 106.294 112.03C106.694 111.676 107.301 111.69 107.679 112.067L115.697 120.086ZM121.794 114.987C121.794 115.878 120.716 116.324 120.086 115.694L112.073 107.68C111.695 107.302 111.682 106.695 112.036 106.295C114.981 102.964 117.568 99.3376 119.756 95.4746C120.281 94.5483 121.794 94.9104 121.794 95.9751V114.987ZM111.394 21.0078C111.394 21.008 111.394 21.0079 111.394 21.0078L120.086 12.3114C120.716 11.6811 121.794 12.1273 121.794 13.0183V32.0504C121.794 33.1151 120.281 33.4771 119.756 32.5507C117.41 28.4075 114.605 24.5354 111.393 21.0086C111.393 21.0081 111.393 21.0075 111.394 21.0078ZM114.993 6.21195C115.884 6.21195 116.33 7.2889 115.7 7.91892L107.682 15.9398C107.304 16.3179 106.697 16.3312 106.296 15.9768C102.967 13.0286 99.3398 10.4394 95.4762 8.24986C94.5499 7.72497 94.9122 6.21195 95.9768 6.21195H114.993Z" fill="url(#paint0_linear_2_2)"/>
</g>
</g>
<defs>
<linearGradient id="paint0_linear_2_2" x1="-0.0260307" y1="-5.06499e-07" x2="100.328" y2="146.888" gradientUnits="userSpaceOnUse">
<stop stop-color="#5CFF8A"/>
<stop offset="0.505208" stop-color="#751BFC"/>
<stop offset="1" stop-color="#FF5671"/>
</linearGradient>
<clipPath id="clip0_2_2">
<rect width="128" height="128" fill="white"/>
</clipPath>
</defs>
</svg>
